# xmcd CD database file
# Generated: Mon May 26 08:08:28 2003 by KSCD
# 
# Track frame offsets:
#       150
#       19804
#       40365
#       62014
#       80711
#       101607
#       120184
#       136225
#       156549
#       176041
#       194595
#       216709
#
# Disc length: 3243 seconds
#
# Revision: 1
# Processed by: cddbd v1.4PL0 Copyright (c) Steve Scherf et al.
# Submitted via: Kscd 1.3.3
#
DISCID=b20ca90c
DTITLE=Great Divide - Willy Nelson
DYEAR=1900
DGENRE=
TTITLE0=Maria
TTITLE1=Mendocino County Line
TTITLE2=Last Stand in Open Country
TTITLE3=Won't Catch Me Cryin'
TTITLE4=Be There for You
TTITLE5=The Great Divide
TTITLE6=Just Dropped In
TTITLE7=This Face
TTITLE8=Don't Fade Away
TTITLE9=Time After Time
TTITLE10=Recollection Phoenix
TTITLE11=
EXTD=
EXTT0=
EXTT1=
EXTT2=
EXTT3=
EXTT4=
EXTT5=
EXTT6=
EXTT7=
EXTT8=
EXTT9=
EXTT10=
EXTT11=
PLAYORDER=
